<mxfile host="app.diagrams.net" modified="2021-03-25T00:18:04.425Z" agent="5.0 (Windows NT 10.0; Win64; x64) AppleWebKit/537.36 (KHTML, like Gecko) Chrome/89.0.4389.90 Safari/537.36" etag="xUCEXbnR_iVFc4WCoJ7J" version="14.4.9" type="github" pages="3">
  <diagram id="yYh30g4DqUhTVf1dLkxT" name="Page-2">
    <mxGraphModel dx="1108" dy="482" grid="1" gridSize="10" guides="1" tooltips="1" connect="1" arrows="1" fold="1" page="1" pageScale="1" pageWidth="827" pageHeight="1169" math="0" shadow="0">
      <root>
        <mxCell id="oLGDwspA0vj51E5j64Jg-0" />
        <mxCell id="oLGDwspA0vj51E5j64Jg-1" parent="oLGDwspA0vj51E5j64Jg-0" />
        <mxCell id="89egPEifKvUhVaM2UerO-0" value="FIM" style="shape=mxgraph.flowchart.terminator;strokeWidth=2;gradientColor=none;gradientDirection=north;fontStyle=0;html=1;" vertex="1" parent="oLGDwspA0vj51E5j64Jg-1">
          <mxGeometry x="270" y="750" width="120" height="30" as="geometry" />
        </mxCell>
        <mxCell id="rD6wh6Q-aYR5P_uHTt61-6" value="" style="edgeStyle=orthogonalEdgeStyle;rounded=0;orthogonalLoop=1;jettySize=auto;html=1;" edge="1" parent="oLGDwspA0vj51E5j64Jg-1" source="gei-MAIeTeE9V56JRwJg-0" target="HDtupLGLojQDpbI8vItD-1">
          <mxGeometry relative="1" as="geometry" />
        </mxCell>
        <mxCell id="gei-MAIeTeE9V56JRwJg-0" value="Início" style="shape=mxgraph.flowchart.terminator;strokeWidth=2;gradientColor=none;gradientDirection=north;fontStyle=0;html=1;" vertex="1" parent="oLGDwspA0vj51E5j64Jg-1">
          <mxGeometry x="260" y="280" width="120" height="30" as="geometry" />
        </mxCell>
        <mxCell id="rD6wh6Q-aYR5P_uHTt61-3" value="" style="edgeStyle=orthogonalEdgeStyle;rounded=0;orthogonalLoop=1;jettySize=auto;html=1;exitX=0.517;exitY=0.863;exitDx=0;exitDy=0;exitPerimeter=0;" edge="1" parent="oLGDwspA0vj51E5j64Jg-1" source="HDtupLGLojQDpbI8vItD-0" target="89egPEifKvUhVaM2UerO-0">
          <mxGeometry relative="1" as="geometry">
            <Array as="points">
              <mxPoint x="322" y="740" />
              <mxPoint x="322" y="740" />
            </Array>
          </mxGeometry>
        </mxCell>
        <mxCell id="HDtupLGLojQDpbI8vItD-0" value="M" style="shape=document;whiteSpace=wrap;html=1;boundedLbl=1;strokeWidth=2;" vertex="1" parent="oLGDwspA0vj51E5j64Jg-1">
          <mxGeometry x="260" y="620" width="120" height="80" as="geometry" />
        </mxCell>
        <mxCell id="rD6wh6Q-aYR5P_uHTt61-5" value="" style="edgeStyle=orthogonalEdgeStyle;rounded=0;orthogonalLoop=1;jettySize=auto;html=1;" edge="1" parent="oLGDwspA0vj51E5j64Jg-1" source="HDtupLGLojQDpbI8vItD-1" target="HDtupLGLojQDpbI8vItD-2">
          <mxGeometry relative="1" as="geometry" />
        </mxCell>
        <mxCell id="HDtupLGLojQDpbI8vItD-1" value="N1, N2" style="shape=parallelogram;perimeter=parallelogramPerimeter;whiteSpace=wrap;html=1;fixedSize=1;strokeWidth=2;" vertex="1" parent="oLGDwspA0vj51E5j64Jg-1">
          <mxGeometry x="260" y="360" width="120" height="60" as="geometry" />
        </mxCell>
        <mxCell id="rD6wh6Q-aYR5P_uHTt61-4" value="" style="edgeStyle=orthogonalEdgeStyle;rounded=0;orthogonalLoop=1;jettySize=auto;html=1;" edge="1" parent="oLGDwspA0vj51E5j64Jg-1" source="HDtupLGLojQDpbI8vItD-2" target="HDtupLGLojQDpbI8vItD-0">
          <mxGeometry relative="1" as="geometry" />
        </mxCell>
        <mxCell id="HDtupLGLojQDpbI8vItD-2" value="M = N1 * N2&amp;nbsp;" style="rounded=0;whiteSpace=wrap;html=1;strokeWidth=2;" vertex="1" parent="oLGDwspA0vj51E5j64Jg-1">
          <mxGeometry x="260" y="490" width="120" height="60" as="geometry" />
        </mxCell>
        <mxCell id="pPkehECyG4RLNUJDcGkD-0" value="&lt;font style=&quot;font-size: 18px&quot;&gt;Multiplicação&lt;/font&gt;" style="text;html=1;strokeColor=none;fillColor=none;align=center;verticalAlign=middle;whiteSpace=wrap;rounded=0;" vertex="1" parent="oLGDwspA0vj51E5j64Jg-1">
          <mxGeometry x="240" y="160" width="160" height="20" as="geometry" />
        </mxCell>
      </root>
    </mxGraphModel>
  </diagram>
  <diagram id="cvyJ9vEBeJUYx7MN142i" name="Page-3">
    <mxGraphModel dx="1108" dy="482" grid="1" gridSize="10" guides="1" tooltips="1" connect="1" arrows="1" fold="1" page="1" pageScale="1" pageWidth="827" pageHeight="1169" math="0" shadow="0">
      <root>
        <mxCell id="wGUZcS65IWZXfsbgWGXg-0" />
        <mxCell id="wGUZcS65IWZXfsbgWGXg-1" parent="wGUZcS65IWZXfsbgWGXg-0" />
        <mxCell id="Mhw7Z-nXcoiD3HiOY-hB-1" value="" style="edgeStyle=orthogonalEdgeStyle;rounded=0;orthogonalLoop=1;jettySize=auto;html=1;" edge="1" parent="wGUZcS65IWZXfsbgWGXg-1" source="wGUZcS65IWZXfsbgWGXg-2" target="HahcCfGb6Re2gGTJO8qV-0">
          <mxGeometry relative="1" as="geometry" />
        </mxCell>
        <mxCell id="wGUZcS65IWZXfsbgWGXg-2" value="Início" style="shape=mxgraph.flowchart.terminator;strokeWidth=2;gradientColor=none;gradientDirection=north;fontStyle=0;html=1;" vertex="1" parent="wGUZcS65IWZXfsbgWGXg-1">
          <mxGeometry x="200" y="120" width="120" height="30" as="geometry" />
        </mxCell>
        <mxCell id="o0eimVedv5cjh8tfzj3k-0" value="FIM" style="shape=mxgraph.flowchart.terminator;strokeWidth=2;gradientColor=none;gradientDirection=north;fontStyle=0;html=1;" vertex="1" parent="wGUZcS65IWZXfsbgWGXg-1">
          <mxGeometry x="210" y="610" width="120" height="30" as="geometry" />
        </mxCell>
        <mxCell id="Mhw7Z-nXcoiD3HiOY-hB-2" value="" style="edgeStyle=orthogonalEdgeStyle;rounded=0;orthogonalLoop=1;jettySize=auto;html=1;" edge="1" parent="wGUZcS65IWZXfsbgWGXg-1" source="HahcCfGb6Re2gGTJO8qV-0" target="HahcCfGb6Re2gGTJO8qV-1">
          <mxGeometry relative="1" as="geometry" />
        </mxCell>
        <mxCell id="HahcCfGb6Re2gGTJO8qV-0" value="N1, N2, N3" style="shape=parallelogram;perimeter=parallelogramPerimeter;whiteSpace=wrap;html=1;fixedSize=1;strokeWidth=2;" vertex="1" parent="wGUZcS65IWZXfsbgWGXg-1">
          <mxGeometry x="200" y="210" width="120" height="60" as="geometry" />
        </mxCell>
        <mxCell id="Mhw7Z-nXcoiD3HiOY-hB-3" value="" style="edgeStyle=orthogonalEdgeStyle;rounded=0;orthogonalLoop=1;jettySize=auto;html=1;" edge="1" parent="wGUZcS65IWZXfsbgWGXg-1" source="HahcCfGb6Re2gGTJO8qV-1" target="6R1d0746AOvLk3LvpUMu-0">
          <mxGeometry relative="1" as="geometry" />
        </mxCell>
        <mxCell id="HahcCfGb6Re2gGTJO8qV-1" value="M = (N1 + N2 + N3) / 3" style="rounded=0;whiteSpace=wrap;html=1;strokeWidth=2;" vertex="1" parent="wGUZcS65IWZXfsbgWGXg-1">
          <mxGeometry x="185" y="330" width="150" height="60" as="geometry" />
        </mxCell>
        <mxCell id="Mhw7Z-nXcoiD3HiOY-hB-4" value="" style="edgeStyle=orthogonalEdgeStyle;rounded=0;orthogonalLoop=1;jettySize=auto;html=1;exitX=0.508;exitY=0.825;exitDx=0;exitDy=0;exitPerimeter=0;" edge="1" parent="wGUZcS65IWZXfsbgWGXg-1" source="6R1d0746AOvLk3LvpUMu-0" target="o0eimVedv5cjh8tfzj3k-0">
          <mxGeometry relative="1" as="geometry">
            <mxPoint x="260" y="420" as="sourcePoint" />
            <Array as="points">
              <mxPoint x="261" y="440" />
              <mxPoint x="260" y="440" />
            </Array>
          </mxGeometry>
        </mxCell>
        <mxCell id="6R1d0746AOvLk3LvpUMu-0" value="M" style="shape=document;whiteSpace=wrap;html=1;boundedLbl=1;strokeWidth=2;" vertex="1" parent="wGUZcS65IWZXfsbgWGXg-1">
          <mxGeometry x="200" y="470" width="120" height="80" as="geometry" />
        </mxCell>
        <mxCell id="go0oPMHB2c09uXdZIgG0-24" value="" style="edgeStyle=elbowEdgeStyle;elbow=horizontal;exitX=0;exitY=0.5;exitPerimeter=0;entryX=0;entryY=0.5;entryPerimeter=0;fontStyle=1;strokeColor=#003366;strokeWidth=1;html=1;" edge="1" parent="wGUZcS65IWZXfsbgWGXg-1" source="go0oPMHB2c09uXdZIgG0-26">
          <mxGeometry x="100" y="620" width="100" height="100" as="geometry">
            <mxPoint x="100" y="720" as="sourcePoint" />
            <mxPoint x="371" y="1038.5" as="targetPoint" />
            <Array as="points">
              <mxPoint x="260" y="1470" />
            </Array>
          </mxGeometry>
        </mxCell>
        <mxCell id="go0oPMHB2c09uXdZIgG0-52" value="" style="edgeStyle=elbowEdgeStyle;elbow=horizontal;exitX=0;exitY=0.5;exitPerimeter=0;entryX=0.095;entryY=0.5;entryPerimeter=0;fontStyle=1;strokeColor=#003366;strokeWidth=1;html=1;" edge="1" parent="wGUZcS65IWZXfsbgWGXg-1" source="go0oPMHB2c09uXdZIgG0-35">
          <mxGeometry x="100" y="620" width="100" height="100" as="geometry">
            <mxPoint x="100" y="720" as="sourcePoint" />
            <mxPoint x="355.605" y="910" as="targetPoint" />
            <Array as="points">
              <mxPoint x="220" y="1590" />
            </Array>
          </mxGeometry>
        </mxCell>
      </root>
    </mxGraphModel>
  </diagram>
  <diagram id="5JgkE4uOMqCkDQJI8m1_" name="Page-4">
    <mxGraphModel dx="1108" dy="482" grid="1" gridSize="10" guides="1" tooltips="1" connect="1" arrows="1" fold="1" page="1" pageScale="1" pageWidth="827" pageHeight="1169" math="0" shadow="0">
      <root>
        <mxCell id="Qp_938XPH_wNKAwRnjDZ-0" />
        <mxCell id="Qp_938XPH_wNKAwRnjDZ-1" parent="Qp_938XPH_wNKAwRnjDZ-0" />
        <mxCell id="sXHgporHrm8JXuPgFkR0-0" value="FIM" style="shape=mxgraph.flowchart.terminator;strokeWidth=2;gradientColor=none;gradientDirection=north;fontStyle=0;html=1;" vertex="1" parent="Qp_938XPH_wNKAwRnjDZ-1">
          <mxGeometry x="185" y="710" width="150" height="30" as="geometry" />
        </mxCell>
        <mxCell id="BCvSXjH_ugA4d3u2aQZc-16" value="" style="edgeStyle=orthogonalEdgeStyle;rounded=0;orthogonalLoop=1;jettySize=auto;html=1;" edge="1" parent="Qp_938XPH_wNKAwRnjDZ-1" source="BCvSXjH_ugA4d3u2aQZc-0" target="BCvSXjH_ugA4d3u2aQZc-1">
          <mxGeometry relative="1" as="geometry" />
        </mxCell>
        <mxCell id="BCvSXjH_ugA4d3u2aQZc-0" value="Início" style="shape=mxgraph.flowchart.terminator;strokeWidth=2;gradientColor=none;gradientDirection=north;fontStyle=0;html=1;" vertex="1" parent="Qp_938XPH_wNKAwRnjDZ-1">
          <mxGeometry x="200" y="90" width="120" height="30" as="geometry" />
        </mxCell>
        <mxCell id="BCvSXjH_ugA4d3u2aQZc-15" value="" style="edgeStyle=orthogonalEdgeStyle;rounded=0;orthogonalLoop=1;jettySize=auto;html=1;" edge="1" parent="Qp_938XPH_wNKAwRnjDZ-1" source="BCvSXjH_ugA4d3u2aQZc-1" target="BCvSXjH_ugA4d3u2aQZc-4">
          <mxGeometry relative="1" as="geometry" />
        </mxCell>
        <mxCell id="BCvSXjH_ugA4d3u2aQZc-1" value="N1, N2&amp;nbsp;" style="shape=parallelogram;perimeter=parallelogramPerimeter;whiteSpace=wrap;html=1;fixedSize=1;strokeWidth=2;" vertex="1" parent="Qp_938XPH_wNKAwRnjDZ-1">
          <mxGeometry x="200" y="180" width="120" height="60" as="geometry" />
        </mxCell>
        <mxCell id="BCvSXjH_ugA4d3u2aQZc-7" value="" style="edgeStyle=orthogonalEdgeStyle;rounded=0;orthogonalLoop=1;jettySize=auto;html=1;" edge="1" parent="Qp_938XPH_wNKAwRnjDZ-1" source="BCvSXjH_ugA4d3u2aQZc-2" target="BCvSXjH_ugA4d3u2aQZc-3">
          <mxGeometry relative="1" as="geometry" />
        </mxCell>
        <mxCell id="BCvSXjH_ugA4d3u2aQZc-2" value="M = N1 / N2" style="rounded=0;whiteSpace=wrap;html=1;strokeWidth=2;" vertex="1" parent="Qp_938XPH_wNKAwRnjDZ-1">
          <mxGeometry x="200" y="450" width="120" height="60" as="geometry" />
        </mxCell>
        <mxCell id="BCvSXjH_ugA4d3u2aQZc-6" value="" style="edgeStyle=orthogonalEdgeStyle;rounded=0;orthogonalLoop=1;jettySize=auto;html=1;exitX=0.5;exitY=0.75;exitDx=0;exitDy=0;exitPerimeter=0;" edge="1" parent="Qp_938XPH_wNKAwRnjDZ-1" source="BCvSXjH_ugA4d3u2aQZc-3" target="sXHgporHrm8JXuPgFkR0-0">
          <mxGeometry relative="1" as="geometry">
            <Array as="points">
              <mxPoint x="260" y="680" />
              <mxPoint x="260" y="680" />
            </Array>
          </mxGeometry>
        </mxCell>
        <mxCell id="BCvSXjH_ugA4d3u2aQZc-3" value="M" style="shape=document;whiteSpace=wrap;html=1;boundedLbl=1;strokeWidth=2;" vertex="1" parent="Qp_938XPH_wNKAwRnjDZ-1">
          <mxGeometry x="200" y="550" width="120" height="80" as="geometry" />
        </mxCell>
        <mxCell id="BCvSXjH_ugA4d3u2aQZc-14" value="NÃO" style="edgeStyle=orthogonalEdgeStyle;rounded=0;orthogonalLoop=1;jettySize=auto;html=1;exitX=0.5;exitY=1;exitDx=0;exitDy=0;entryX=0.5;entryY=0;entryDx=0;entryDy=0;" edge="1" parent="Qp_938XPH_wNKAwRnjDZ-1" source="BCvSXjH_ugA4d3u2aQZc-4" target="BCvSXjH_ugA4d3u2aQZc-2">
          <mxGeometry relative="1" as="geometry">
            <Array as="points">
              <mxPoint x="260" y="410" />
              <mxPoint x="260" y="410" />
            </Array>
          </mxGeometry>
        </mxCell>
        <mxCell id="BCvSXjH_ugA4d3u2aQZc-22" style="edgeStyle=entityRelationEdgeStyle;rounded=0;orthogonalLoop=1;jettySize=auto;html=1;exitX=1;exitY=0.5;exitDx=0;exitDy=0;" edge="1" parent="Qp_938XPH_wNKAwRnjDZ-1" source="BCvSXjH_ugA4d3u2aQZc-4" target="sXHgporHrm8JXuPgFkR0-0">
          <mxGeometry relative="1" as="geometry">
            <mxPoint x="540" y="330" as="targetPoint" />
          </mxGeometry>
        </mxCell>
        <mxCell id="BCvSXjH_ugA4d3u2aQZc-4" value="N1 = 0?" style="rhombus;whiteSpace=wrap;html=1;strokeWidth=2;" vertex="1" parent="Qp_938XPH_wNKAwRnjDZ-1">
          <mxGeometry x="220" y="290" width="80" height="80" as="geometry" />
        </mxCell>
        <mxCell id="HEEeSG57JG6pmHRFyrtR-0" value="DIVISÃO" style="text;html=1;strokeColor=none;fillColor=none;align=center;verticalAlign=middle;whiteSpace=wrap;rounded=0;" vertex="1" parent="Qp_938XPH_wNKAwRnjDZ-1">
          <mxGeometry x="170" y="40" width="190" height="20" as="geometry" />
        </mxCell>
      </root>
    </mxGraphModel>
  </diagram>
</mxfile>
